<svg width="23" height="14" viewBox="0 0 23 14" fill="none" xmlns="http://www.w3.org/2000/svg">
<g id="Group 3">
<path id="path3" d="M1.11184 0.333008C0.498194 0.333008 0.000732422 0.830469 0.000732422 1.44412V12.5552C0.000732422 13.1689 0.498194 13.6663 1.11184 13.6663H20.9801C21.5938 13.6663 22.0913 13.1689 22.0913 12.5552V9.59775C22.0913 9.38667 22.223 9.18303 22.223 8.97196C22.223 8.7616 22.0913 8.55807 22.0913 8.34771V1.44412C22.0913 0.830469 21.5938 0.333008 20.9801 0.333008H1.11184Z" fill="#0A7EC2"/>
<g id="Group 2">
<path id="path5" d="M11.7562 9.00702C11.7562 9.68282 11.2316 9.82389 10.7007 9.82389H9.94439V10.6412H8.76763L8.01987 9.83535L7.24412 10.6412H4.84277V8.20347H7.28164L8.02704 9.0015L8.79798 8.20347H10.7352C11.2168 8.20347 11.7562 8.33169 11.7562 9.00702ZM6.93681 10.1326H5.44559V9.64791H6.77685V9.15082H5.44559V8.70886H6.96574L7.62838 9.41779L6.93681 10.1326ZM9.3401 10.4197L8.41059 9.42691L9.3401 8.46624V10.4197ZM10.729 9.3277H9.94439V8.70886H10.7352C10.9547 8.70886 11.1063 8.79291 11.1063 9.00704C11.1063 9.21789 10.9619 9.3277 10.729 9.3277ZM14.8195 8.20347H16.844V8.70886H15.4236V9.15082H16.8086V9.64791H15.4236V10.1326L16.844 10.1349V10.6412H14.8195V8.20347ZM14.0529 9.5078C14.1877 9.55513 14.2983 9.64151 14.3499 9.71315C14.435 9.83309 14.4494 9.94337 14.4503 10.1583V10.6412H13.8425V10.3357C13.8425 10.1892 13.8563 9.97276 13.7439 9.86021C13.6559 9.7706 13.5211 9.7504 13.3006 9.7504H12.6506V10.6413H12.0428V8.20347H13.4417C13.7497 8.20347 13.9735 8.21591 14.172 8.3197C14.3623 8.42906 14.4818 8.58346 14.4818 8.8609C14.4819 9.24872 14.2126 9.44718 14.0529 9.5078ZM13.6861 9.20595C13.6062 9.25098 13.5053 9.25556 13.3881 9.25556H12.6506V8.70886H13.3987C13.5053 8.70886 13.6143 8.71023 13.6861 8.75156C13.765 8.79157 13.8119 8.86647 13.8119 8.97165C13.8119 9.075 13.765 9.15955 13.6861 9.20595ZM19.1579 9.35483C19.2774 9.47336 19.3396 9.62219 19.3396 9.87076C19.3396 10.3963 18.9981 10.6412 18.3874 10.6412H17.2061V10.1179H18.3831C18.4993 10.1179 18.5792 10.1037 18.6308 10.0577C18.6715 10.021 18.7026 9.96677 18.7026 9.89923C18.7026 9.82799 18.6705 9.77057 18.627 9.73844C18.5816 9.69985 18.518 9.68421 18.4123 9.68284C17.8456 9.66494 17.1348 9.69987 17.1348 8.92804C17.1348 8.57518 17.3663 8.20347 18.0019 8.20347H19.2172V8.72219H18.1062C17.9943 8.72219 17.923 8.72677 17.8618 8.76583C17.7958 8.80577 17.7714 8.86508 17.7714 8.94226C17.7714 9.03318 17.8278 9.09614 17.9044 9.12327C17.9675 9.1444 18.0354 9.15084 18.1387 9.15176L18.4658 9.15957C18.7958 9.16875 19.0201 9.22251 19.1579 9.35483ZM21.5783 10.3288C21.4292 10.5378 21.1422 10.6412 20.7543 10.6412H19.583V10.1179H20.7495C20.8643 10.1179 20.9456 10.1037 20.9944 10.0577C21.036 10.021 21.0675 9.96677 21.0675 9.89923C21.0675 9.82799 21.036 9.77057 20.9934 9.73844C20.948 9.69985 20.8849 9.68421 20.7801 9.68284C20.211 9.66494 19.5007 9.69987 19.5007 8.92804C19.5007 8.57518 19.7341 8.20347 20.3693 8.20347H21.5783V7.71875H20.4549C20.1153 7.71875 19.8699 7.79643 19.6949 7.91773V7.71875H18.0353C17.7713 7.71875 17.46 7.78263 17.3113 7.91773L17.3122 7.71875H14.3469V7.91773C14.1112 7.756 13.7142 7.71875 13.5287 7.71875H11.5755V7.91773C11.3875 7.74451 10.9743 7.71875 10.7213 7.71875H8.53252L8.032 8.24068L7.56377 7.71875H4.29321V11.1204H7.50164L8.01722 10.5916L8.50408 11.1204L10.4793 11.1213V10.321H10.6749C10.9361 10.3246 11.2469 10.3154 11.5195 10.2024V11.1204H13.1504V10.2332H13.2284C13.3293 10.2332 13.3388 10.2387 13.3388 10.3334V11.1204H18.2927C18.6059 11.1204 18.935 11.0427 19.1163 10.9026V11.1204H20.6888C21.0154 11.1204 21.3344 11.0767 21.5784 10.9637V10.3288L21.5783 10.3288ZM21.5783 8.72219H20.4707C20.3612 8.72219 20.287 8.72677 20.2272 8.76583C20.1632 8.80577 20.1383 8.86508 20.1383 8.94226C20.1383 9.03318 20.1919 9.09614 20.2717 9.12327C20.3344 9.1444 20.4032 9.15084 20.5052 9.15176L20.8327 9.15957C21.1637 9.16877 21.3856 9.22253 21.5219 9.35483C21.5439 9.37412 21.5607 9.39615 21.5784 9.41639V8.72219H21.5783Z" fill="white"/>
<path id="path9" d="M0.00415039 6.92611H1.04006L1.27418 6.3826H1.79668L2.02936 6.92611H4.06795V6.51126L4.25063 6.92703H5.30807L5.48981 6.50713V6.92611H10.5558L10.5529 6.03758H10.651C10.7208 6.03852 10.7409 6.04675 10.7409 6.15475V6.92611H13.3594V6.71847C13.5707 6.82781 13.9008 6.92611 14.3317 6.92611H15.4346L15.6708 6.3826H16.1945L16.4255 6.92611H18.549V6.4111L18.8704 6.92611H20.5711V3.52637H18.8876V3.92883L18.6523 3.52637H16.9234V3.92883L16.7077 3.52637H14.3728C13.9821 3.52637 13.6368 3.57827 13.3594 3.72483V3.52637H11.75V3.72483C11.5716 3.57369 11.3311 3.52637 11.0646 3.52637H5.17821L4.7815 4.40431L4.37808 3.52637H2.52386V3.92883L2.31869 3.52637H0.737787L0.00415039 5.14126V6.92611ZM20.0316 6.44556H19.1721L18.0234 4.61886L18.0244 6.44556H16.789L16.5537 5.9025H15.2915L15.0653 6.44556H14.3551C14.0586 6.44556 13.6856 6.3826 13.4766 6.17723C13.2603 5.96865 13.1518 5.69022 13.1518 5.2455C13.1518 4.88394 13.2188 4.55451 13.479 4.29448C13.675 4.09925 13.9821 4.00916 14.3996 4.00916H14.985V4.53108H14.4125C14.1911 4.53108 14.0643 4.56368 13.9438 4.67623C13.8419 4.77915 13.7702 4.97304 13.7702 5.22892C13.7702 5.49081 13.8233 5.67642 13.9381 5.80092C14.0299 5.89602 14.2002 5.9259 14.3594 5.9259H14.6325L15.4862 4.00916H16.3949L17.4208 6.31412V4.00916H18.3457L19.4122 5.70583V4.00918H20.0316V6.44556ZM12.8548 6.44556H12.2364V4.00873H12.8548V6.44556H12.8548ZM11.8844 4.66755C11.8844 5.05256 11.6147 5.25609 11.4578 5.31582C11.5903 5.36498 11.7031 5.44906 11.7557 5.52212C11.8419 5.64063 11.8576 5.75228 11.8576 5.96638V6.44556H11.2464L11.244 6.13911C11.244 5.99441 11.2593 5.78304 11.1469 5.66684C11.058 5.57953 10.9255 5.56163 10.706 5.56163H10.0536V6.44556H9.44885V4.00918H10.8442C11.1522 4.00918 11.3813 4.0193 11.5778 4.12727C11.7701 4.23569 11.8844 4.39466 11.8844 4.66755ZM9.0275 6.44556H7.00208V4.00918H9.0275V4.51825H7.60971V4.95563H8.99332V5.45642L7.60971 5.45503V5.94157H9.0275V6.44556ZM6.55106 6.44556H5.93005L5.92671 4.54031L5.04789 6.44556H4.51557L3.63319 4.53571V6.44556H2.39953L2.16778 5.9025H0.9047L0.670575 6.44556H0.0110263L1.09526 4.00918H1.99726L3.02813 6.31735V4.00918H4.01959L4.81182 5.66361L5.54163 4.00918H6.55102V6.44556H6.55106ZM16.3457 5.39485L15.9257 4.42453L15.5097 5.39485H16.3457ZM11.091 5.01031C11.0082 5.0549 10.9097 5.05992 10.7911 5.05992H10.0536V4.51825H10.8007C10.9073 4.51825 11.0178 4.52148 11.09 4.56052C11.168 4.59728 11.2158 4.67307 11.2158 4.77554C11.2158 4.88257 11.1694 4.96757 11.091 5.01031ZM1.94898 5.39485L1.53409 4.42453L1.12065 5.39485H1.94898ZM11.091 5.01031C11.0087 5.05579 10.9102 5.05992 10.7921 5.05992H10.0546V4.51825H10.8011C10.9078 4.51825 11.0187 4.52193 11.09 4.56099C11.1684 4.59775 11.2163 4.67309 11.2163 4.77646C11.2163 4.88302 11.1699 4.96804 11.091 5.01031Z" fill="white"/>
</g>
</g>
</svg>
