<svg width="16" height="16" viewBox="0 0 16 16" fill="none" xmlns="http://www.w3.org/2000/svg">
<g id="credit-card-02">
<path id="Icon" d="M14.6646 6.66634H1.3313M7.3313 9.33301H3.99796M1.3313 5.46634L1.3313 10.533C1.3313 11.2797 1.3313 11.6531 1.47662 11.9383C1.60445 12.1892 1.80843 12.3932 2.05931 12.521C2.34453 12.6663 2.71789 12.6663 3.46463 12.6663L12.5313 12.6663C13.278 12.6663 13.6514 12.6663 13.9366 12.521C14.1875 12.3932 14.3915 12.1892 14.5193 11.9383C14.6646 11.6531 14.6646 11.2797 14.6646 10.533V5.46634C14.6646 4.71961 14.6646 4.34624 14.5193 4.06102C14.3915 3.81014 14.1875 3.60616 13.9366 3.47833C13.6514 3.33301 13.278 3.33301 12.5313 3.33301L3.46463 3.33301C2.7179 3.33301 2.34453 3.33301 2.05931 3.47833C1.80843 3.60616 1.60445 3.81014 1.47662 4.06102C1.3313 4.34624 1.3313 4.7196 1.3313 5.46634Z" stroke="white" stroke-width="1.12" stroke-linecap="round" stroke-linejoin="round"/>
</g>
</svg>
