<svg width="23" height="14" viewBox="0 0 23 14" fill="none" xmlns="http://www.w3.org/2000/svg">
<g id="discover-dark logo">
<g id="Group">
<path id="Vector" d="M21.4676 0.333008H1.02317C0.532247 0.333008 0.134277 0.730977 0.134277 1.2219V12.7775C0.134277 13.2684 0.532247 13.6663 1.02317 13.6663H21.4676C21.9585 13.6663 22.3565 13.2684 22.3565 12.7775V1.2219C22.3565 0.730977 21.9585 0.333008 21.4676 0.333008Z" fill="white"/>
<path id="Vector_2" d="M21.347 0.444336H1.12473C0.633809 0.444336 0.23584 0.842305 0.23584 1.33322V12.6666C0.23584 13.1575 0.633809 13.5554 1.12473 13.5554H21.347C21.8379 13.5554 22.2359 13.1575 22.2359 12.6666V1.33322C22.2359 0.842305 21.8379 0.444336 21.347 0.444336Z" stroke="#E6772F" stroke-width="0.299849"/>
<path id="Vector_3" d="M5.48584 13.6662H21.4603C21.9514 13.6662 22.3492 13.2691 22.3492 12.7784V7.82129C22.3492 7.82129 16.3936 11.8591 5.48584 13.6662Z" fill="#E6772F"/>
<path id="Vector_4" fill-rule="evenodd" clip-rule="evenodd" d="M4.19104 6.96008C4.02415 7.10275 3.81171 7.16519 3.47215 7.16519H3.33126V5.46297H3.47215C3.81171 5.46297 4.01593 5.52097 4.19104 5.67075C4.37149 5.82564 4.47993 6.06408 4.47993 6.31119C4.47993 6.55919 4.37149 6.80653 4.19104 6.96008ZM3.57726 5.02675H2.80615V7.60142H3.57282C3.98038 7.60142 4.27504 7.50853 4.53282 7.30364C4.83949 7.06075 5.02126 6.69431 5.02126 6.31475C5.02126 5.55475 4.42793 5.02675 3.57726 5.02675ZM5.26326 5.02675H5.78615V7.60142H5.26326V5.02675ZM7.06993 6.01364C6.75438 5.90275 6.66215 5.82919 6.66215 5.68986C6.66215 5.52808 6.82704 5.40542 7.05371 5.40542C7.21082 5.40542 7.34038 5.46564 7.47816 5.61275L7.75104 5.27008C7.53079 5.08294 7.2505 4.98141 6.96149 4.98408C6.48527 4.98408 6.12238 5.30097 6.12238 5.72008C6.12238 6.07586 6.29104 6.25653 6.78327 6.42786C6.98927 6.49631 7.09371 6.54319 7.1466 6.57475C7.25149 6.63964 7.30371 6.73253 7.30371 6.84008C7.30371 7.04964 7.13038 7.20342 6.89593 7.20342C6.64638 7.20342 6.4446 7.08386 6.32371 6.85942L5.98549 7.17275C6.22727 7.51186 6.51704 7.66342 6.9166 7.66342C7.46104 7.66342 7.84482 7.31453 7.84482 6.81764C7.84482 6.40808 7.66704 6.22231 7.06993 6.01364ZM8.00971 6.31475C8.00971 7.07186 8.63082 7.65853 9.43016 7.65853C9.65571 7.65853 9.84882 7.61586 10.0868 7.50853V6.91675C9.8766 7.11897 9.69194 7.19897 9.45327 7.19897C8.92505 7.19897 8.55082 6.83297 8.55082 6.31119C8.55082 5.81786 8.93705 5.42742 9.43016 5.42742C9.67905 5.42742 9.86927 5.51186 10.0868 5.71697V5.12586C9.85705 5.01475 9.66838 4.96875 9.44105 4.96875C8.64616 4.96875 8.00971 5.56675 8.00971 6.31475ZM14.3377 6.75519L13.6202 5.02675H13.0482L14.1886 7.66631H14.4699L15.6326 5.02675H15.065L14.3377 6.75519ZM15.8706 7.60142H17.3586V7.16519H16.3957V6.47008H17.3219V6.03408H16.3957V5.46297H17.3586V5.02675H15.8706V7.60142ZM18.3833 6.21075H18.2311V5.43208H18.3919C18.7197 5.43208 18.8953 5.56364 18.8953 5.81431C18.8953 6.07208 18.7197 6.21075 18.3833 6.21075ZM19.4355 5.78631C19.4355 5.30431 19.0899 5.02675 18.4844 5.02675H17.705V7.60142H18.2311V6.56631H18.2993L19.0242 7.60142H19.6695L18.8231 6.51631C19.2186 6.43897 19.4355 6.18008 19.4355 5.78631Z" fill="#1A1919"/>
<path id="Vector_5" fill-rule="evenodd" clip-rule="evenodd" d="M13.1345 6.32074C13.1345 7.06185 12.5069 7.66274 11.732 7.66274C10.9571 7.66274 10.3296 7.06185 10.3296 6.32074C10.3296 5.5794 10.9571 4.97852 11.7318 4.97852C12.5069 4.97852 13.1345 5.5794 13.1345 6.32074Z" fill="#E6772F"/>
</g>
</g>
</svg>
