<svg width="24" height="14" viewBox="0 0 24 14" fill="none" xmlns="http://www.w3.org/2000/svg">
<g id="Frame 1">
<path id="Vector" d="M22.6813 13.6663H0.83667V0.333008H23.0589V13.6663H22.6813Z" fill="#1D5B99"/>
<path id="Vector_2" fill-rule="evenodd" clip-rule="evenodd" d="M22.6788 13.3302H1.21167V0.669922H22.6788V13.3302Z" fill="white"/>
<path id="Vector_3" fill-rule="evenodd" clip-rule="evenodd" d="M8.97455 9.05527L10.3687 4.95799H11.6127L10.2184 9.05527H8.97455ZM8.41845 4.95911L7.29942 6.69608C7.01467 7.15106 6.84802 7.38086 6.76798 7.66813H6.75091C6.77076 7.30388 6.71373 6.85634 6.70842 6.60344L6.58476 4.95911H4.49085L4.46948 5.06934C5.00737 5.06934 5.32639 5.31018 5.41414 5.80291L5.8223 9.05527H7.11102L9.7169 4.95911H8.41845ZM18.0922 9.05527L18.0579 8.446L16.5048 8.44488L16.1869 9.05527H14.8365L17.2853 4.96576H18.9429L19.3575 9.05527H18.0922ZM17.9497 6.63837C17.9356 6.33554 17.9242 5.92463 17.9471 5.67579H17.9288C17.8532 5.87921 17.528 6.49006 17.385 6.79041L16.9222 7.68842H18.0127L17.9497 6.63837ZM12.9186 9.17169C12.0404 9.17169 11.4575 8.92341 11.0415 8.70195L11.634 7.89545C12.0077 8.08164 12.3009 8.29656 12.9759 8.29656C13.1927 8.29656 13.4018 8.24641 13.5207 8.06304C13.6936 7.79673 13.4808 7.65314 12.995 7.40802L12.755 7.26894C12.0346 6.83031 11.7229 6.41353 12.0621 5.68615C12.2792 5.22092 12.8513 4.86816 13.7957 4.86816C14.4467 4.86816 15.0573 5.11926 15.4128 5.3645L14.7317 6.07656C14.3844 5.82636 14.0968 5.69979 13.7675 5.69979C13.505 5.69979 13.3055 5.79007 13.2366 5.91178C13.107 6.14057 13.2786 6.29655 13.6571 6.50595L13.9424 6.66779C14.8171 7.15951 15.0253 7.67501 14.8063 8.15681C14.429 8.98663 13.6908 9.17169 12.9186 9.17169ZM19.7278 5.51327H19.674V5.22092H19.7984C19.8777 5.22092 19.9179 5.2456 19.9179 5.305C19.9179 5.35797 19.8816 5.37994 19.8324 5.38479L19.9243 5.51327H19.8634L19.7787 5.3884H19.7278V5.51327ZM19.788 5.34726C19.8285 5.34726 19.8641 5.34377 19.8641 5.30139C19.8641 5.26612 19.8253 5.26183 19.7931 5.26183H19.7278V5.34726H19.788ZM19.7865 5.62631C19.6161 5.62631 19.4948 5.51259 19.4948 5.36214C19.4948 5.20334 19.6293 5.09808 19.7865 5.09808C19.9416 5.09808 20.0764 5.20334 20.0764 5.36214C20.0764 5.52105 19.9416 5.62631 19.7865 5.62631ZM19.7865 5.14395C19.658 5.14395 19.5583 5.23366 19.5583 5.36214C19.5583 5.48216 19.6454 5.58033 19.7865 5.58033C19.9132 5.58033 20.013 5.49129 20.013 5.36214C20.013 5.23366 19.9132 5.14395 19.7865 5.14395Z" fill="#1D5B99"/>
<path id="Vector_4" fill-rule="evenodd" clip-rule="evenodd" d="M22.162 10.3281H1.78979V12.7576H22.162V10.3281Z" fill="#E7A83A"/>
<path id="Vector_5" fill-rule="evenodd" clip-rule="evenodd" d="M22.1228 1.27539H1.75073V3.70502H22.1228V1.27539ZM21.6573 12.585H21.6034V12.2927H21.7278C21.8071 12.2927 21.8473 12.3174 21.8473 12.3768C21.8473 12.4296 21.811 12.4516 21.7618 12.4565L21.8538 12.585H21.7928L21.7081 12.4601H21.6573V12.585ZM21.7176 12.419C21.7581 12.419 21.7937 12.4155 21.7937 12.3731C21.7937 12.3379 21.7549 12.3336 21.7226 12.3336H21.6574V12.419H21.7176ZM21.7161 12.698C21.5456 12.698 21.4244 12.5844 21.4244 12.4338C21.4244 12.2751 21.5592 12.1698 21.7161 12.1698C21.8715 12.1698 22.006 12.2751 22.006 12.4338C22.006 12.5927 21.8715 12.698 21.7161 12.698ZM21.7161 12.2156C21.5876 12.2156 21.4878 12.3054 21.4878 12.4338C21.4878 12.5539 21.575 12.652 21.7161 12.652C21.8428 12.652 21.9425 12.5631 21.9425 12.4338C21.9425 12.3054 21.8428 12.2156 21.7161 12.2156Z" fill="#1D5B99"/>
</g>
</svg>
